<svg xmlns="http://www.w3.org/2000/svg" xmlns:xlink="http://www.w3.org/1999/xlink" width="500" zoomAndPan="magnify" viewBox="0 0 375 374.999991" height="500" preserveAspectRatio="xMidYMid meet" version="1.0"><defs><clipPath id="b6cb04a626"><path d="M 0 41.25 L 105 41.25 L 105 333.75 L 0 333.75 Z M 0 41.25 " clip-rule="nonzero"/></clipPath><clipPath id="3a2aed956b"><path d="M 270 41.25 L 375 41.25 L 375 333.75 L 270 333.75 Z M 270 41.25 " clip-rule="nonzero"/></clipPath><clipPath id="f241ebb046"><path d="M 195 176 L 282.25 176 L 282.25 268 L 195 268 Z M 195 176 " clip-rule="nonzero"/></clipPath><clipPath id="b3f8356801"><path d="M 92.5 272 L 263 272 L 263 279 L 92.5 279 Z M 92.5 272 " clip-rule="nonzero"/></clipPath><clipPath id="56eec2eba1"><path d="M 135 278 L 221 278 L 221 281.855469 L 135 281.855469 Z M 135 278 " clip-rule="nonzero"/></clipPath><clipPath id="a847c320f0"><path d="M 141 92.855469 L 161 92.855469 L 161 173 L 141 173 Z M 141 92.855469 " clip-rule="nonzero"/></clipPath><clipPath id="6f0a75ad8c"><path d="M 167 92.855469 L 187 92.855469 L 187 173 L 167 173 Z M 167 92.855469 " clip-rule="nonzero"/></clipPath></defs><g clip-path="url(#b6cb04a626)"><path fill="#5e17eb" d="M 0.0859375 205.765625 L 0.0859375 169.242188 C 9.316406 168.835938 16.265625 166.859375 20.9375 163.304688 C 25.601562 159.753906 28.847656 154.429688 30.675781 147.328125 C 32.5 140.226562 33.414062 128.507812 33.414062 112.171875 C 33.414062 94.925781 34.25 82.445312 35.925781 74.734375 C 37.601562 67.023438 40.769531 60.707031 45.4375 55.785156 C 50.101562 50.867188 56.371094 47.214844 64.234375 44.828125 C 72.09375 42.445312 82.722656 41.253906 96.117188 41.253906 L 104.179688 41.253906 L 104.179688 77.777344 C 90.585938 77.777344 82.011719 79.148438 78.460938 81.886719 C 74.910156 84.625 73.136719 90.613281 73.136719 99.84375 C 73.136719 128.152344 71.410156 148.011719 67.960938 159.425781 C 64.511719 170.839844 56.699219 180.199219 44.523438 187.503906 C 53.859375 192.578125 60.933594 200.160156 65.753906 210.253906 C 70.570312 220.351562 72.984375 242.039062 72.984375 275.3125 C 72.984375 283.226562 74.148438 288.351562 76.484375 290.683594 C 78.816406 293.015625 81.277344 294.71875 83.863281 295.78125 C 86.453125 296.847656 93.222656 297.378906 104.179688 297.378906 L 104.179688 333.753906 L 96.113281 333.753906 C 75.621094 333.753906 61.722656 331.242188 54.414062 326.21875 C 47.109375 321.199219 41.785156 315.386719 38.4375 308.792969 C 35.089844 302.199219 33.414062 286.933594 33.414062 262.988281 C 33.414062 246.753906 32.550781 235.136719 30.828125 228.136719 C 29.101562 221.136719 25.878906 215.785156 21.164062 212.078125 C 16.441406 208.375 9.410156 206.277344 0.0820312 205.765625 Z M 0.0859375 205.765625 " fill-opacity="1" fill-rule="nonzero"/></g><g clip-path="url(#3a2aed956b)"><path fill="#5e17eb" d="M 353.84375 212.082031 C 349.125 215.785156 345.90625 221.136719 344.179688 228.136719 C 342.457031 235.136719 341.59375 246.757812 341.59375 262.988281 C 341.59375 286.933594 339.917969 302.199219 336.570312 308.796875 C 333.222656 315.390625 327.894531 321.199219 320.589844 326.222656 C 313.285156 331.242188 299.386719 333.753906 278.890625 333.753906 L 270.824219 333.753906 L 270.824219 297.382812 C 281.78125 297.382812 288.554688 296.851562 291.140625 295.785156 C 293.730469 294.71875 296.191406 293.019531 298.523438 290.6875 C 300.859375 288.355469 302.023438 283.230469 302.023438 275.316406 C 302.023438 242.039062 304.433594 220.351562 309.25 210.257812 C 314.070312 200.164062 321.148438 192.582031 330.480469 187.507812 C 318.304688 180.199219 310.496094 170.839844 307.042969 159.425781 C 303.597656 148.015625 301.871094 128.152344 301.871094 99.847656 C 301.871094 90.617188 300.097656 84.628906 296.542969 81.886719 C 292.992188 79.148438 284.421875 77.78125 270.824219 77.78125 L 270.824219 41.253906 L 278.890625 41.253906 C 292.28125 41.253906 302.914062 42.445312 310.773438 44.828125 C 318.636719 47.214844 324.902344 50.867188 329.570312 55.785156 C 334.238281 60.707031 337.40625 67.023438 339.082031 74.734375 C 340.753906 82.445312 341.589844 94.925781 341.589844 112.171875 C 341.589844 128.507812 342.503906 140.226562 344.332031 147.328125 C 346.15625 154.429688 349.40625 159.757812 354.070312 163.308594 C 358.738281 166.859375 365.691406 168.835938 374.921875 169.242188 L 374.921875 205.765625 C 365.582031 206.277344 358.550781 208.378906 353.835938 212.082031 Z M 353.84375 212.082031 " fill-opacity="1" fill-rule="nonzero"/></g><g clip-path="url(#f241ebb046)"><path fill="#5e17eb" d="M 239.933594 176.464844 C 222.613281 176.464844 207.714844 186.945312 201.210938 201.886719 L 218.136719 201.886719 C 223.175781 195.355469 231.058594 191.125 239.933594 191.125 C 255.121094 191.125 267.476562 203.480469 267.476562 218.667969 C 267.476562 233.851562 242.128906 249.597656 226.941406 249.597656 C 220.898438 249.597656 200.097656 253.621094 195.554688 250.308594 L 195.554688 267.035156 C 200.535156 269.109375 221.21875 264.253906 226.941406 264.253906 C 250.21875 264.253906 282.140625 241.9375 282.140625 218.667969 C 282.140625 195.398438 263.207031 176.464844 239.933594 176.464844 " fill-opacity="1" fill-rule="nonzero"/></g><path fill="#5e17eb" d="M 147.929688 272.199219 L 207.207031 272.199219 C 227.546875 258.402344 241.429688 230.855469 241.429688 199.109375 C 241.429688 190.816406 240.472656 182.820312 238.714844 175.273438 L 116.421875 175.273438 C 114.664062 182.820312 113.707031 190.816406 113.707031 199.109375 C 113.707031 230.855469 127.589844 258.402344 147.929688 272.199219 " fill-opacity="1" fill-rule="nonzero"/><g clip-path="url(#b3f8356801)"><path fill="#5e17eb" d="M 177.570312 272.199219 L 92.675781 272.199219 C 92.675781 272.199219 95.324219 278.554688 106.980469 278.554688 C 118.628906 278.554688 177.550781 278.554688 177.566406 278.554688 L 177.570312 278.554688 C 177.585938 278.554688 236.503906 278.554688 248.15625 278.554688 C 259.8125 278.554688 262.460938 272.199219 262.460938 272.199219 L 177.570312 272.199219 " fill-opacity="1" fill-rule="nonzero"/></g><g clip-path="url(#56eec2eba1)"><path fill="#5e17eb" d="M 177.570312 278.726562 L 135.121094 278.726562 C 135.121094 278.726562 136.445312 281.902344 142.273438 281.902344 C 148.097656 281.902344 177.558594 281.902344 177.566406 281.902344 L 177.570312 281.902344 C 177.578125 281.902344 207.035156 281.902344 212.863281 281.902344 C 218.6875 281.902344 220.015625 278.726562 220.015625 278.726562 L 177.570312 278.726562 " fill-opacity="1" fill-rule="nonzero"/></g><path fill="#5e17eb" d="M 241.429688 247.0625 C 241.429688 241.796875 237.160156 237.527344 231.894531 237.527344 C 226.628906 237.527344 222.359375 241.796875 222.359375 247.0625 C 222.359375 252.324219 226.628906 256.597656 231.894531 256.597656 C 237.160156 256.597656 241.429688 252.324219 241.429688 247.0625 " fill-opacity="1" fill-rule="nonzero"/><g clip-path="url(#a847c320f0)"><path fill="#5e17eb" d="M 160.390625 92.875 C 157.191406 98.871094 154.097656 104.914062 151.738281 111.300781 C 149.945312 116.15625 148.425781 121.472656 148.609375 126.707031 C 148.589844 126.140625 148.660156 127.316406 148.671875 127.484375 C 148.707031 128.050781 148.75 128.613281 148.785156 129.175781 C 148.859375 130.226562 149.148438 131.339844 149.386719 132.359375 C 150.601562 137.421875 153.160156 142.027344 154.914062 146.898438 C 158.105469 155.78125 157.636719 164.527344 152.613281 172.617188 C 152.902344 169.140625 153.34375 165.773438 153.03125 162.277344 C 152.589844 157.320312 150.683594 152.757812 148.351562 148.414062 C 144.851562 141.90625 141.496094 135.515625 141.121094 128.011719 C 140.855469 122.761719 142.300781 117.398438 144.464844 112.652344 C 147.890625 105.132812 153.535156 97.605469 160.390625 92.875 " fill-opacity="1" fill-rule="nonzero"/></g><g clip-path="url(#6f0a75ad8c)"><path fill="#5e17eb" d="M 186.898438 92.875 C 183.699219 98.871094 180.609375 104.914062 178.25 111.300781 C 176.457031 116.15625 174.9375 121.472656 175.121094 126.707031 C 175.101562 126.140625 175.171875 127.316406 175.179688 127.484375 C 175.21875 128.050781 175.257812 128.613281 175.296875 129.175781 C 175.367188 130.226562 175.65625 131.339844 175.902344 132.359375 C 177.109375 137.421875 179.667969 142.027344 181.425781 146.898438 C 184.617188 155.78125 184.144531 164.527344 179.121094 172.617188 C 179.410156 169.140625 179.855469 165.773438 179.542969 162.277344 C 179.101562 157.320312 177.195312 152.757812 174.859375 148.414062 C 171.363281 141.90625 168.007812 135.515625 167.628906 128.011719 C 167.367188 122.761719 168.808594 117.398438 170.976562 112.652344 C 174.402344 105.132812 180.042969 97.605469 186.898438 92.875 " fill-opacity="1" fill-rule="nonzero"/></g></svg>